# xmcd
#
# Track frame offsets:
#	150
#	15131
#	46364
#
# Disc length: 1028 seconds
#
# Revision: 0
# Processed by: cddbd v1.5.1PL0 Copyright (c) Steve Scherf et al.
# Submitted via: dBpowerAMP V4.0
#
DISCID=14040203
DTITLE=Benjamin Bates´ - Locked Up
DYEAR=1900
DGENRE=Acid Jazz
TTITLE0=Locked Up (Radio edit)
TTITLE1=Locked Up (Original)
TTITLE2=Locked Up (Bates45Mix)
EXTD=
EXTT0=
EXTT1=
EXTT2=
PLAYORDER=
